<svg width="212" height="212" xmlns="http://www.w3.org/2000/svg" preserveAspectRatio="xMidYMid meet" fill="#fff">

 <g>
  <title>Layer 1</title>
  <path id="svg_1" fill="#00a884" d="m105.946,0.25c58.372,0 105.694,47.346 105.694,105.75s-47.322,105.75 -105.695,105.75c-58.374,0 -105.695,-47.346 -105.695,-105.75s47.321,-105.75 105.696,-105.75z" class="background" height="24" width="24"/>
  <path stroke="null" id="svg_2" d="m101.6256,77.50024c0,9.12963 -6.74,16.49939 -15.152,16.49939s-15.2024,-7.36976 -15.2024,-16.49939c0,-9.13049 6.7904,-16.50024 15.2024,-16.50024s15.152,7.36976 15.152,16.50024zm38.4544,2.44432c0,8.38616 -6.1904,15.15531 -13.9168,15.15531c-7.7264,0 -13.9632,-6.76916 -13.9632,-15.15531s6.2368,-15.15617 13.9632,-15.15617c7.7264,0 13.9168,6.77001 13.9168,15.15617zm-53.608,25.05494c-11.8072,0 -35.472,6.43549 -35.472,19.25l0,10.08358c0,3.02524 2.28,3.66691 5.0672,3.66691l60.8096,0c2.7872,0 5.0672,-0.64167 5.0672,-3.66691l0,-10.08358c0,-12.81451 -23.664,-19.25 -35.472,-19.25zm34.7712,1.21917c0.7224,0.0154 1.3448,0.02823 1.7568,0.02823c11.8072,0 36,5.18809 36,18.00346l0,8.24927c0,3.02524 -2.28,5.50037 -5.0672,5.50037l-26.2496,0c0.5576,-1.70512 0.9128,-3.57537 0.9128,-5.50037l-0.196,-8.98333c0,-8.17997 -4.4912,-11.30446 -9.2704,-14.63c-1.112,-0.77342 -2.2392,-1.55797 -3.3296,-2.41951a0.6744,0.72123 0 0 1 -0.0472,-0.06246a0.4752,0.5082 0 0 0 -0.1552,-0.15742c1.2768,-0.11892 3.7904,-0.06673 5.6456,-0.02823z" clip-rule="evenodd" class="primary" width="24" height="24"/>
 </g>
</svg>